<svg xmlns="http://www.w3.org/2000/svg" width="94.473" height="46.532" viewBox="0 0 94.473 46.532"><defs><style>.a,.c{fill:#004c84;}.b{fill:#fff;}.c{font-size:7px;font-family:Arial-BoldItalicMT, Arial;font-weight:700;font-style:italic;letter-spacing:0.07em;}</style></defs><path class="a" d="M17.889,54.689H12.114l-.377-8.65-4.059,8.65H1.9L.26,39.81H6.082l.412,8.62,3.993-8.62h5.159l.227,8.62,4.185-8.62h5.751Z" transform="translate(-0.099 -16.011)"/><path class="a" d="M46.951,48.694v.2a.209.209,0,0,0-.03.108.6.6,0,0,1,0,.108,2.152,2.152,0,0,0,.735,1.548,2.756,2.756,0,0,0,1.793.532,3.025,3.025,0,0,0,1.315-.275,3.449,3.449,0,0,0,1.052-.789l5.494.12a9.021,9.021,0,0,1-3.886,3.617,12.177,12.177,0,0,1-4.962,1.2h-.269a7.114,7.114,0,0,1-4.782-1.518A5.536,5.536,0,0,1,41.517,49.4a8.215,8.215,0,0,1,0-1.142,9.565,9.565,0,0,1,.173-1.2,9.062,9.062,0,0,1,3.533-5.344,10.115,10.115,0,0,1,6.283-2.128,6.822,6.822,0,0,1,4.818,1.62A6.163,6.163,0,0,1,58.2,45.669a9.911,9.911,0,0,1-.048,1.435,13.056,13.056,0,0,1-.215,1.59Zm5.942-3.324V45.1a1.793,1.793,0,0,0-.556-1.339,2.2,2.2,0,0,0-1.483-.454,3.138,3.138,0,0,0-1.937.6,3.587,3.587,0,0,0-1.2,1.752h5.153c0-.078.012-.179.018-.281Z" transform="translate(-16.685 -15.922)"/><path class="b" d="M88.205,49.221q-.078.191-.143.359a3.257,3.257,0,0,1-.149.329,8.368,8.368,0,0,1-.717,1.375,6.575,6.575,0,0,1-.945,1.094.2.2,0,0,1-.078.1l-.114.1A9.074,9.074,0,0,1,83.112,54.3a10.27,10.27,0,0,1-3.521.6,8.159,8.159,0,0,1-4.968-1.315,4.609,4.609,0,0,1-1.847-3.754,8.777,8.777,0,0,1,0-1.2,10.343,10.343,0,0,1,.209-1.291,10.007,10.007,0,0,1,3.5-5.894,10.162,10.162,0,0,1,6.576-2.1,7.283,7.283,0,0,1,4.448,1.2,4.316,4.316,0,0,1,1.7,3.413v.221a.968.968,0,0,1,0,.227v.442H86.053a3.156,3.156,0,0,0-.968-2.391,3.676,3.676,0,0,0-2.553-.831A5.8,5.8,0,0,0,78.6,43.034a7.173,7.173,0,0,0-2.206,3.91c-.078.4-.137.8-.179,1.16a6.8,6.8,0,0,0-.042,1.022,3.515,3.515,0,0,0,1.07,2.576,4.077,4.077,0,0,0,2.822.891,4.956,4.956,0,0,0,2.857-.861,7.108,7.108,0,0,0,2.164-2.547Z" transform="translate(-29.258 -15.821)"/><path class="b" d="M102.649,43.985c.042-.108.078-.215.114-.329a6.325,6.325,0,0,1,.436-1.028,3.97,3.97,0,0,1,.6-.8c.078-.06.143-.12.209-.179l.209-.209a7.251,7.251,0,0,1,2.8-1.578,12.733,12.733,0,0,1,3.772-.514,11.358,11.358,0,0,1,4.22.664,2.654,2.654,0,0,1,1.722,2.535,4.782,4.782,0,0,1-.03.705,5.978,5.978,0,0,1-.137.8l-1.578,7.048a3.2,3.2,0,0,1-.078.46,1.38,1.38,0,0,0,0,.371.693.693,0,0,0,.227.532.968.968,0,0,0,.6.167h.365l.562-.048-.43,1.979-1.01.161c-.251.042-.484.066-.7.084h-.287a2.989,2.989,0,0,1-1.722-.389,1.536,1.536,0,0,1-.6-1.273,2.112,2.112,0,0,1,0-.275,2.259,2.259,0,0,1,.036-.281c-.245.185-.484.359-.723.514s-.472.3-.717.43a10.987,10.987,0,0,1-2.612,1.034,10.246,10.246,0,0,1-2.69.353,6.271,6.271,0,0,1-3.545-.879,2.857,2.857,0,0,1-1.351-2.391,5.192,5.192,0,0,1,0-.526,2.988,2.988,0,0,1,.09-.556,4.782,4.782,0,0,1,2.989-3.527,20.187,20.187,0,0,1,5.189-1.417c.67-.1,1.345-.167,2.009-.227l1.931-.161h.389a1.307,1.307,0,0,0,.395-.042.235.235,0,0,1,.048-.167c.048-.06.036-.12.054-.191s0-.108.048-.167,0-.114.048-.167a2.988,2.988,0,0,0,.09-.556,4.256,4.256,0,0,0,0-.472,1.506,1.506,0,0,0-.837-1.375,5.649,5.649,0,0,0-2.451-.4,6.235,6.235,0,0,0-3.055.634,3.413,3.413,0,0,0-1.536,2.056h-3.192a2.9,2.9,0,0,1,.137-.395Zm6.755,3.587c-.885.12-1.608.245-2.164.377l-.664.155c-.191.048-.377.1-.544.155a4.185,4.185,0,0,0-1.548.843,2.445,2.445,0,0,0-.777,1.231,2.639,2.639,0,0,1-.042.323,1.2,1.2,0,0,0,0,.287,1.447,1.447,0,0,0,.753,1.2,3.91,3.91,0,0,0,2.062.448,7.574,7.574,0,0,0,3.8-.986,3.915,3.915,0,0,0,2.056-2.427l.454-2.026q-2.056.251-3.389.43Z" transform="translate(-40.336 -15.822)"/><path class="b" d="M136.472,39.736l-.436,1.937c.526-.412,1.016-.759,1.471-1.052a9.063,9.063,0,0,1,1.333-.711,6.061,6.061,0,0,1,1.494-.436,10.759,10.759,0,0,1,1.71-.126,6.39,6.39,0,0,1,3.144.705,2.881,2.881,0,0,1,1.518,1.931,3.542,3.542,0,0,0,.06.377,3.354,3.354,0,0,1,0,.347,4.525,4.525,0,0,1-.06.9c-.048.341-.149.837-.293,1.483l-2.128,9.445H141.2l2-8.967c.078-.371.143-.711.185-1.028a4.853,4.853,0,0,0,.048-.861,1.943,1.943,0,0,0-.723-1.554,3.784,3.784,0,0,0-2.134-.472,6.073,6.073,0,0,0-2.792.658,4.848,4.848,0,0,0-1.967,1.7,2.393,2.393,0,0,0-.149.263,1.793,1.793,0,0,0-.12.239,1.315,1.315,0,0,0-.137.275c-.036.1-.066.185-.1.275a6.58,6.58,0,0,0-.2.693c-.072.257-.149.6-.251,1l-1.734,7.771H130.04l3.348-14.8Z" transform="translate(-52.298 -15.823)"/><path class="a" d="M34.051,6.119C65.656-1.772,87.756,20.2,87.756,20.2h19.129S76.649-12.9,33.28,6.167" transform="translate(-13.38 -0.098)"/><path class="b" d="M72.849,6.019C41.244-1.872,19.125,20.1,19.125,20.1H0c-.466.514,28.939-33.476,73.348-14.15" transform="translate(0.009 0.002)"/><text class="c" transform="translate(0.681 44.532)"><tspan x="0" y="0">International Logistics</tspan></text></svg>